<svg xmlns="http://www.w3.org/2000/svg" xmlns:xlink="http://www.w3.org/1999/xlink" width="1920" zoomAndPan="magnify" viewBox="0 0 1440 809.999993" height="1080" preserveAspectRatio="xMidYMid meet" version="1.0"><defs><clipPath id="d276abf2bf"><path d="M 258 39.113281 L 1410.824219 39.113281 L 1410.824219 776.363281 L 258 776.363281 Z M 258 39.113281 " clip-rule="nonzero"/></clipPath><clipPath id="ab591077af"><path d="M 29.324219 214 L 522 214 L 522 251 L 29.324219 251 Z M 29.324219 214 " clip-rule="nonzero"/></clipPath></defs><g clip-path="url(#d276abf2bf)"><path fill="#575757" d="M 1401.53125 407.910156 L 1290.832031 211.761719 L 1290.507812 211.214844 C 1279.921875 193.878906 1262.066406 183.535156 1242.75 183.535156 L 1106.992188 183.535156 L 1116.503906 114.671875 C 1119.132812 95.636719 1113.402344 76.410156 1100.777344 61.921875 C 1088.152344 47.433594 1069.890625 39.121094 1050.671875 39.121094 L 394.46875 39.121094 C 384.351562 39.121094 376.148438 47.328125 376.148438 57.445312 C 376.148438 67.5625 384.351562 75.769531 394.46875 75.769531 L 1050.679688 75.769531 C 1059.425781 75.769531 1067.40625 79.398438 1073.148438 85.992188 C 1078.894531 92.582031 1081.402344 100.988281 1080.203125 109.648438 L 1069.996094 183.527344 L 1069.429688 183.527344 L 1009.167969 608.707031 L 1009.109375 609.183594 C 1007.78125 620.710938 1006.902344 629.480469 1006.3125 636.125 L 683.847656 636.125 C 674.980469 577.503906 624.253906 532.421875 563.199219 532.421875 C 502.144531 532.421875 451.417969 577.503906 442.550781 636.125 L 325.304688 636.125 C 316.5625 636.125 308.582031 632.496094 302.835938 625.902344 C 297.09375 619.308594 294.585938 610.90625 295.78125 602.242188 L 308.261719 511.878906 C 309.648438 501.851562 302.640625 492.597656 292.621094 491.21875 C 282.566406 489.832031 273.351562 496.84375 271.964844 506.867188 L 259.484375 597.234375 C 256.855469 616.269531 262.589844 635.496094 275.207031 649.984375 C 287.832031 664.472656 306.097656 672.78125 325.3125 672.78125 L 442.558594 672.78125 C 451.425781 731.402344 502.152344 776.484375 563.207031 776.484375 C 624.261719 776.484375 674.988281 731.402344 683.855469 672.78125 L 1067.175781 672.78125 C 1076.042969 731.402344 1126.769531 776.484375 1187.824219 776.484375 C 1248.882812 776.484375 1299.609375 731.402344 1308.472656 672.78125 L 1332.222656 672.78125 C 1363.351562 672.78125 1388.753906 645.863281 1389.367188 612.519531 L 1410.617188 443.722656 L 1410.761719 441.433594 C 1410.761719 429.488281 1407.570312 417.910156 1401.539062 407.914062 Z M 648.574219 654.449219 C 648.574219 660.738281 647.867188 666.867188 646.574219 672.773438 C 638.160156 711.070312 603.984375 739.820312 563.191406 739.820312 C 522.402344 739.820312 488.230469 711.0625 479.820312 672.773438 C 478.523438 666.859375 477.820312 660.738281 477.820312 654.449219 C 477.820312 648.160156 478.523438 642.027344 479.820312 636.125 C 488.230469 597.828125 522.40625 569.074219 563.191406 569.074219 C 603.976562 569.074219 638.152344 597.832031 646.574219 636.125 C 647.867188 642.035156 648.574219 648.160156 648.574219 654.449219 Z M 1273.199219 654.449219 C 1273.199219 660.738281 1272.492188 666.867188 1271.199219 672.773438 C 1262.785156 711.070312 1228.609375 739.820312 1187.816406 739.820312 C 1147.027344 739.820312 1112.847656 711.0625 1104.4375 672.773438 C 1103.140625 666.859375 1102.4375 660.738281 1102.4375 654.449219 C 1102.4375 648.160156 1103.140625 642.027344 1104.4375 636.125 C 1112.847656 597.828125 1147.027344 569.074219 1187.816406 569.074219 C 1228.609375 569.074219 1262.777344 597.832031 1271.199219 636.125 C 1272.492188 642.035156 1273.199219 648.160156 1273.199219 654.449219 Z M 1352.863281 608.988281 L 1352.722656 611.277344 C 1352.722656 624.976562 1343.523438 636.125 1332.214844 636.125 L 1308.464844 636.125 C 1299.601562 577.503906 1248.875 532.421875 1187.816406 532.421875 C 1126.761719 532.421875 1076.035156 577.503906 1067.171875 636.125 L 1044.480469 636.125 L 1101.9375 220.179688 L 1242.757812 220.179688 C 1249.125 220.179688 1255.207031 223.878906 1259.097656 230.09375 L 1369.757812 426.179688 L 1370.082031 426.722656 C 1372.546875 430.753906 1373.925781 435.46875 1374.089844 440.417969 L 1352.871094 608.988281 Z M 1352.863281 608.988281 " fill-opacity="1" fill-rule="nonzero"/></g><path fill="#575757" d="M 1241.066406 258.957031 C 1236.386719 249.734375 1227.042969 244.003906 1216.699219 244.003906 L 1142.691406 244.003906 C 1128.992188 244.003906 1117.335938 254.25 1115.578125 267.832031 L 1099.589844 391.222656 C 1098.582031 399.019531 1100.976562 406.878906 1106.164062 412.789062 C 1111.355469 418.691406 1118.835938 422.078125 1126.703125 422.078125 L 1279.441406 422.078125 C 1289.027344 422.078125 1297.742188 417.199219 1302.753906 409.03125 C 1307.761719 400.859375 1308.164062 390.878906 1303.820312 382.347656 L 1241.074219 258.957031 Z M 1137.296875 385.433594 L 1150.875 280.660156 L 1210.992188 280.660156 L 1264.265625 385.433594 Z M 1137.296875 385.433594 " fill-opacity="1" fill-rule="nonzero"/><g clip-path="url(#ab591077af)"><path fill="#575757" d="M 521.210938 232.375 C 521.210938 222.257812 513.003906 214.050781 502.886719 214.050781 L 47.675781 214.050781 C 37.558594 214.050781 29.351562 222.257812 29.351562 232.375 C 29.351562 242.488281 37.558594 250.695312 47.675781 250.695312 L 502.878906 250.695312 C 512.996094 250.695312 521.203125 242.488281 521.203125 232.375 Z M 521.210938 232.375 " fill-opacity="1" fill-rule="nonzero"/></g><path fill="#575757" d="M 626.074219 319.375 L 170.859375 319.375 C 160.742188 319.375 152.539062 327.582031 152.539062 337.699219 C 152.539062 347.816406 160.742188 356.023438 170.859375 356.023438 L 626.066406 356.023438 C 636.183594 356.023438 644.390625 347.816406 644.390625 337.699219 C 644.390625 327.582031 636.183594 319.375 626.066406 319.375 Z M 626.074219 319.375 " fill-opacity="1" fill-rule="nonzero"/><path fill="#575757" d="M 465.519531 443.023438 C 465.519531 432.90625 457.3125 424.699219 447.195312 424.699219 L 103.371094 424.699219 C 93.253906 424.699219 85.046875 432.90625 85.046875 443.023438 C 85.046875 453.140625 93.253906 461.347656 103.371094 461.347656 L 447.195312 461.347656 C 457.3125 461.347656 465.519531 453.140625 465.519531 443.023438 Z M 465.519531 443.023438 " fill-opacity="1" fill-rule="nonzero"/><path fill="#575757" d="M 174.785156 153.273438 L 629.992188 153.273438 C 640.109375 153.273438 648.316406 145.066406 648.316406 134.953125 C 648.316406 124.835938 640.109375 116.628906 629.992188 116.628906 L 174.785156 116.628906 C 164.667969 116.628906 156.460938 124.835938 156.460938 134.953125 C 156.460938 145.066406 164.667969 153.273438 174.785156 153.273438 Z M 174.785156 153.273438 " fill-opacity="1" fill-rule="nonzero"/></svg>