<svg xmlns="http://www.w3.org/2000/svg" xmlns:xlink="http://www.w3.org/1999/xlink" width="1920" zoomAndPan="magnify" viewBox="0 0 1440 809.999993" height="1080" preserveAspectRatio="xMidYMid meet" version="1.0"><defs><clipPath id="5131c25040"><path d="M 439.15625 21 L 1000.90625 21 L 1000.90625 795.75 L 439.15625 795.75 Z M 439.15625 21 " clip-rule="nonzero"/></clipPath></defs><g clip-path="url(#5131c25040)"><path fill="#575757" d="M 675.089844 651.175781 C 664.105469 619.125 643.988281 590.984375 617.230469 570.207031 L 551.4375 519.132812 C 483.882812 466.6875 442.859375 387.148438 439.300781 301.699219 C 439.300781 146.671875 564.976562 21 720.003906 21 C 875.03125 21 1000.703125 146.671875 1000.703125 301.699219 C 997.148438 387.148438 956.121094 466.6875 888.566406 519.132812 L 822.777344 570.207031 C 796.015625 590.984375 775.902344 619.125 764.914062 651.175781 L 757.179688 673.746094 C 751.730469 689.628906 736.796875 700.296875 720.003906 700.296875 C 703.210938 700.296875 688.277344 689.628906 682.824219 673.746094 Z M 720.003906 795.738281 C 657.992188 795.738281 607.722656 788.195312 607.722656 778.894531 C 607.722656 769.59375 657.992188 762.050781 720.003906 762.050781 C 782.015625 762.050781 832.285156 769.59375 832.285156 778.894531 C 832.285156 788.195312 782.015625 795.738281 720.003906 795.738281 Z M 720.003906 520.648438 C 844.027344 520.648438 944.566406 420.109375 944.566406 296.085938 C 944.566406 172.066406 844.027344 71.523438 720.003906 71.523438 C 595.976562 71.523438 495.441406 172.066406 495.441406 296.085938 C 495.441406 420.109375 595.976562 520.648438 720.003906 520.648438 Z M 574.039062 380.097656 L 574.464844 228.707031 L 706.230469 304.808594 L 706.335938 456.171875 Z M 734.777344 304.789062 L 865.539062 228.722656 L 865.96875 380.09375 L 734.777344 456.40625 Z M 588.703125 203.722656 L 719.582031 127.664062 L 851.335938 203.734375 L 720.464844 279.792969 Z M 588.703125 203.722656 " fill-opacity="1" fill-rule="nonzero"/></g></svg>